<?xml version="1.0" encoding="UTF-8"?>
<!DOCTYPE svg PUBLIC "-//W3C//DTD SVG 1.1//EN" "http://www.w3.org/Graphics/SVG/1.1/DTD/svg11.dtd">
<svg xmlns="http://www.w3.org/2000/svg" version="1.1" width="500px" height="500px" style="shape-rendering:geometricPrecision; text-rendering:geometricPrecision; image-rendering:optimizeQuality; fill-rule:evenodd; clip-rule:evenodd" xmlns:xlink="http://www.w3.org/1999/xlink">
<g><path style="opacity:0.999" fill="#262526" d="M 68.5,383.5 C 72.8996,381.896 77.5662,381.229 82.5,381.5C 92.3153,380.169 101.982,378.003 111.5,375C 112.056,374.617 112.389,374.117 112.5,373.5C 112.833,373.5 113.167,373.5 113.5,373.5C 117.775,371.078 122.442,369.245 127.5,368C 130.439,366.454 133.106,364.621 135.5,362.5C 140.072,360.308 144.738,358.308 149.5,356.5C 153.584,352.625 156.918,348.291 159.5,343.5C 164.932,342.388 166.932,339.054 165.5,333.5C 196.905,331.729 207.739,315.729 198,285.5C 193.078,277.612 185.911,273.112 176.5,272C 171.829,271.462 167.162,270.962 162.5,270.5C 161.791,269.596 160.791,269.263 159.5,269.5C 158.097,263.595 154.431,259.762 148.5,258C 145.804,255.071 142.804,252.571 139.5,250.5C 136.789,246.788 133.456,243.788 129.5,241.5C 128.167,240.833 127.167,239.833 126.5,238.5C 125.928,235.756 124.262,234.923 121.5,236C 118.572,239.029 116.572,242.529 115.5,246.5C 114.5,246.5 113.5,246.5 112.5,246.5C 112.5,247.833 112.5,249.167 112.5,250.5C 110.61,250.297 109.11,250.963 108,252.5C 107.725,255.412 106.891,258.079 105.5,260.5C 105.5,260.833 105.5,261.167 105.5,261.5C 100.988,263.347 98.321,266.68 97.5,271.5C 92.9368,275.611 89.6035,280.611 87.5,286.5C 87.5,287.167 87.1667,287.5 86.5,287.5C 84.8712,288.625 83.3712,289.959 82,291.5C 80.2845,293.935 79.1179,296.602 78.5,299.5C 76.9557,299.703 75.6223,300.37 74.5,301.5C 72.5391,305.749 70.8724,310.083 69.5,314.5C 69.1667,315.833 68.8333,317.167 68.5,318.5C 66.5879,320.657 64.9213,322.991 63.5,325.5C 63.5,255.833 63.5,186.167 63.5,116.5C 100.835,116.333 138.168,116.5 175.5,117C 229.076,123.229 252.909,153.063 247,206.5C 244.429,221.512 236.596,232.679 223.5,240C 240.889,247.057 252.389,259.557 258,277.5C 268.424,331.381 247.258,365.548 194.5,380C 187.256,381.652 179.923,382.652 172.5,383C 137.835,383.5 103.168,383.667 68.5,383.5 Z M 122.5,165.5 C 136.171,165.333 149.837,165.5 163.5,166C 185.33,167.846 194.497,179.679 191,201.5C 189.484,211.351 183.984,217.851 174.5,221C 157.214,222.428 139.881,222.928 122.5,222.5C 122.5,203.5 122.5,184.5 122.5,165.5 Z"/></g>
<g><path style="opacity:1" fill="#2c2827" d="M 362.5,382.5 C 324.818,383.16 287.485,382.494 250.5,380.5C 256.482,365.583 262.316,350.583 268,335.5C 276.535,305.622 272.535,277.622 256,251.5C 255.5,206.501 255.333,161.501 255.5,116.5C 292.835,116.333 330.168,116.5 367.5,117C 420.985,123.151 444.819,152.985 439,206.5C 435.839,221.185 428.005,232.518 415.5,240.5C 440.7,253.042 452.7,273.542 451.5,302C 450.256,341.233 430.923,366.566 393.5,378C 383.4,381.133 373.067,382.633 362.5,382.5 Z M 368.5,168.5 C 380.877,176.425 385.377,187.758 382,202.5C 380.203,213.63 373.703,220.13 362.5,222C 346.17,222.5 329.837,222.667 313.5,222.5C 313.5,203.5 313.5,184.5 313.5,165.5C 326.504,165.333 339.504,165.5 352.5,166C 357.951,166.244 363.284,167.077 368.5,168.5 Z M 313.5,271.5 C 328.504,271.333 343.504,271.5 358.5,272C 379.483,271.325 390.483,281.325 391.5,302C 391.391,321.777 381.391,332.111 361.5,333C 345.503,333.5 329.503,333.667 313.5,333.5C 313.5,312.833 313.5,292.167 313.5,271.5 Z"/></g>
<g><path style="opacity:1" fill="#2a2724" d="M 368.5,168.5 C 369.857,166.501 369.19,165.335 366.5,165C 366.833,164.667 367.167,164.333 367.5,164C 362.362,161.787 357.029,160.287 351.5,159.5C 351.5,157.5 351.5,155.5 351.5,153.5C 340.833,152.833 330.167,152.167 319.5,151.5C 319.5,148.833 319.5,146.167 319.5,143.5C 310.833,143.5 302.167,143.5 293.5,143.5C 293.5,148.833 293.5,154.167 293.5,159.5C 291.5,159.5 289.5,159.5 287.5,159.5C 287.5,167.5 287.5,175.5 287.5,183.5C 282.167,183.5 276.833,183.5 271.5,183.5C 271.5,186.167 271.5,188.833 271.5,191.5C 267.855,192.05 264.689,192.05 262,191.5C 261.667,194.167 261.333,196.833 261,199.5C 258.976,187.083 259.142,174.75 261.5,162.5C 259.798,156.381 258.965,150.048 259,143.5C 258.667,150.167 258.333,156.833 258,163.5C 256.775,148.83 256.608,134.163 257.5,119.5C 262.489,120.781 267.656,121.448 273,121.5C 300.673,119.719 328.173,118.886 355.5,119C 354.062,119.219 352.729,119.719 351.5,120.5C 356.792,121.495 362.125,121.828 367.5,121.5C 367.5,123.5 367.5,125.5 367.5,127.5C 370.167,127.5 372.833,127.5 375.5,127.5C 375.5,132.833 375.5,138.167 375.5,143.5C 378.167,143.5 380.833,143.5 383.5,143.5C 383.5,150.833 383.5,158.167 383.5,165.5C 379.5,165.5 375.5,165.5 371.5,165.5C 371.5,166.5 371.5,167.5 371.5,168.5C 370.5,168.5 369.5,168.5 368.5,168.5 Z"/></g>
<g><path style="opacity:1" fill="#391a3c" d="M 126.5,238.5 C 123.762,236.866 121.762,237.533 120.5,240.5C 118.833,242.5 117.167,244.5 115.5,246.5C 116.572,242.529 118.572,239.029 121.5,236C 124.262,234.923 125.928,235.756 126.5,238.5 Z"/></g>
<g><path style="opacity:1" fill="#8f37a0" d="M 126.5,238.5 C 127.167,239.833 128.167,240.833 129.5,241.5C 130.778,243.799 132.111,246.132 133.5,248.5C 132.617,249.548 131.95,250.715 131.5,252C 133.776,258.034 134.442,264.201 133.5,270.5C 130.911,270.461 128.911,271.461 127.5,273.5C 126.5,273.5 125.5,273.5 124.5,273.5C 125.27,263.865 125.603,254.198 125.5,244.5C 125.191,241.508 123.524,240.175 120.5,240.5C 121.762,237.533 123.762,236.866 126.5,238.5 Z"/></g>
<g><path style="opacity:1" fill="#351f39" d="M 115.5,246.5 C 113.976,249.074 112.642,251.741 111.5,254.5C 109.5,256.5 107.5,258.5 105.5,260.5C 106.891,258.079 107.725,255.412 108,252.5C 109.11,250.963 110.61,250.297 112.5,250.5C 112.5,249.167 112.5,247.833 112.5,246.5C 113.5,246.5 114.5,246.5 115.5,246.5 Z"/></g>
<g><path style="opacity:1" fill="#bb4ac8" d="M 120.5,240.5 C 123.524,240.175 125.191,241.508 125.5,244.5C 125.603,254.198 125.27,263.865 124.5,273.5C 121.873,274.092 119.206,274.425 116.5,274.5C 117.504,273.317 118.338,271.984 119,270.5C 119.667,264.833 119.667,259.167 119,253.5C 118.55,250.894 117.05,249.561 114.5,249.5C 114.5,251.167 114.5,252.833 114.5,254.5C 113.5,254.5 112.5,254.5 111.5,254.5C 112.642,251.741 113.976,249.074 115.5,246.5C 117.167,244.5 118.833,242.5 120.5,240.5 Z"/></g>
<g><path style="opacity:1" fill="#5e2174" d="M 129.5,241.5 C 133.456,243.788 136.789,246.788 139.5,250.5C 141.164,255.468 144.164,259.635 148.5,263C 146.899,263.273 145.399,263.773 144,264.5C 143.342,266.108 143.842,267.275 145.5,268C 142.809,268.156 140.476,268.989 138.5,270.5C 136.833,270.5 135.167,270.5 133.5,270.5C 134.442,264.201 133.776,258.034 131.5,252C 131.95,250.715 132.617,249.548 133.5,248.5C 132.111,246.132 130.778,243.799 129.5,241.5 Z"/></g>
<g><path style="opacity:1" fill="#491d5b" d="M 139.5,250.5 C 142.804,252.571 145.804,255.071 148.5,258C 154.431,259.762 158.097,263.595 159.5,269.5C 160.791,269.263 161.791,269.596 162.5,270.5C 156.167,270.5 149.833,270.5 143.5,270.5C 141.833,270.5 140.167,270.5 138.5,270.5C 140.476,268.989 142.809,268.156 145.5,268C 143.842,267.275 143.342,266.108 144,264.5C 145.399,263.773 146.899,263.273 148.5,263C 144.164,259.635 141.164,255.468 139.5,250.5 Z"/></g>
<g><path style="opacity:1" fill="#431a4a" d="M 105.5,261.5 C 103.183,265.146 100.516,268.48 97.5,271.5C 98.321,266.68 100.988,263.347 105.5,261.5 Z"/></g>
<g><path style="opacity:1" fill="#e761ec" d="M 116.5,274.5 C 113.572,277.738 109.906,279.071 105.5,278.5C 105.5,279.5 105.5,280.5 105.5,281.5C 104.833,281.833 104.167,282.167 103.5,282.5C 101.5,282.5 99.5,282.5 97.5,282.5C 97.719,283.675 97.3857,284.675 96.5,285.5C 95.2655,283.602 95.5989,281.935 97.5,280.5C 94.7719,277.834 95.2719,275.834 99,274.5C 99.4828,273.552 99.6495,272.552 99.5,271.5C 101.927,271.477 104.26,270.977 106.5,270C 105.57,268.806 104.903,267.473 104.5,266C 107.07,262.274 109.403,258.44 111.5,254.5C 112.5,254.5 113.5,254.5 114.5,254.5C 114.5,252.833 114.5,251.167 114.5,249.5C 117.05,249.561 118.55,250.894 119,253.5C 119.667,259.167 119.667,264.833 119,270.5C 118.338,271.984 117.504,273.317 116.5,274.5 Z"/></g>
<g><path style="opacity:0.902" fill="#9665a1" d="M 133.5,270.5 C 135.167,270.5 136.833,270.5 138.5,270.5C 140.167,270.5 141.833,270.5 143.5,270.5C 138.338,271.731 133.004,272.731 127.5,273.5C 128.911,271.461 130.911,270.461 133.5,270.5 Z"/></g>
<g><path style="opacity:1" fill="#401942" d="M 97.5,271.5 C 95.2336,275.034 93.2336,278.7 91.5,282.5C 89.8058,283.527 88.4725,284.861 87.5,286.5C 89.6035,280.611 92.9368,275.611 97.5,271.5 Z"/></g>
<g><path style="opacity:1" fill="#c76bce" d="M 124.5,273.5 C 125.5,273.5 126.5,273.5 127.5,273.5C 125.972,274.309 124.306,274.976 122.5,275.5C 118.703,275.872 115.37,277.206 112.5,279.5C 111.391,279.557 110.391,279.89 109.5,280.5C 108.167,280.833 106.833,281.167 105.5,281.5C 105.5,280.5 105.5,279.5 105.5,278.5C 109.906,279.071 113.572,277.738 116.5,274.5C 119.206,274.425 121.873,274.092 124.5,273.5 Z"/></g>
<g><path style="opacity:0.965" fill="#4a3e4c" d="M 122.5,275.5 C 122.5,294.833 122.5,314.167 122.5,333.5C 121.662,333.158 121.328,332.492 121.5,331.5C 121.5,321.833 121.5,312.167 121.5,302.5C 121.5,296.833 121.5,291.167 121.5,285.5C 119.099,284.951 116.765,284.118 114.5,283C 113.177,282.184 112.511,281.017 112.5,279.5C 115.37,277.206 118.703,275.872 122.5,275.5 Z"/></g>
<g><path style="opacity:1" fill="#df71e4" d="M 111.5,254.5 C 109.403,258.44 107.07,262.274 104.5,266C 104.903,267.473 105.57,268.806 106.5,270C 104.26,270.977 101.927,271.477 99.5,271.5C 99.6495,272.552 99.4828,273.552 99,274.5C 95.2719,275.834 94.7719,277.834 97.5,280.5C 95.5989,281.935 95.2655,283.602 96.5,285.5C 97.3857,284.675 97.719,283.675 97.5,282.5C 99.5,282.5 101.5,282.5 103.5,282.5C 102.205,283.488 100.872,284.488 99.5,285.5C 96.4822,287.526 93.4822,289.526 90.5,291.5C 89.5,291.5 88.5,291.5 87.5,291.5C 88.5527,288.393 89.886,285.393 91.5,282.5C 93.2336,278.7 95.2336,275.034 97.5,271.5C 100.516,268.48 103.183,265.146 105.5,261.5C 105.5,261.167 105.5,260.833 105.5,260.5C 107.5,258.5 109.5,256.5 111.5,254.5 Z"/></g>
<g><path style="opacity:1" fill="#401e45" d="M 86.5,287.5 C 84.3265,291.852 81.6599,295.852 78.5,299.5C 79.1179,296.602 80.2845,293.935 82,291.5C 83.3712,289.959 84.8712,288.625 86.5,287.5 Z"/></g>
<g><path style="opacity:1" fill="#371b43" d="M 112.5,279.5 C 112.511,281.017 113.177,282.184 114.5,283C 116.765,284.118 119.099,284.951 121.5,285.5C 121.5,291.167 121.5,296.833 121.5,302.5C 120.239,299.742 119.406,296.742 119,293.5C 117.693,292.228 116.193,291.228 114.5,290.5C 113.271,287.026 110.938,284.693 107.5,283.5C 108.193,282.482 108.859,281.482 109.5,280.5C 110.391,279.89 111.391,279.557 112.5,279.5 Z"/></g>
<g><path style="opacity:1" fill="#d07cd7" d="M 91.5,282.5 C 89.886,285.393 88.5527,288.393 87.5,291.5C 88.5,291.5 89.5,291.5 90.5,291.5C 88.1667,294.167 85.8333,296.833 83.5,299.5C 80.1195,301.88 77.4528,304.88 75.5,308.5C 73.1667,311.833 70.8333,315.167 68.5,318.5C 68.8333,317.167 69.1667,315.833 69.5,314.5C 72.2452,309.342 75.2452,304.342 78.5,299.5C 81.6599,295.852 84.3265,291.852 86.5,287.5C 87.1667,287.5 87.5,287.167 87.5,286.5C 88.4725,284.861 89.8058,283.527 91.5,282.5 Z"/></g>
<g><path style="opacity:1" fill="#48195c" d="M 109.5,280.5 C 108.859,281.482 108.193,282.482 107.5,283.5C 110.938,284.693 113.271,287.026 114.5,290.5C 116.193,291.228 117.693,292.228 119,293.5C 119.406,296.742 120.239,299.742 121.5,302.5C 121.5,312.167 121.5,321.833 121.5,331.5C 120.834,328.642 120.167,325.642 119.5,322.5C 115.778,320.741 113.778,317.741 113.5,313.5C 111.576,313.433 109.576,313.1 107.5,312.5C 105.151,309.983 102.651,307.65 100,305.5C 99.51,304.207 99.3433,302.873 99.5,301.5C 92.8001,300.27 91.1334,296.77 94.5,291C 95.9003,289.562 97.567,288.729 99.5,288.5C 99.5,287.5 99.5,286.5 99.5,285.5C 100.872,284.488 102.205,283.488 103.5,282.5C 104.167,282.167 104.833,281.833 105.5,281.5C 106.833,281.167 108.167,280.833 109.5,280.5 Z"/></g>
<g><path style="opacity:1" fill="#612774" d="M 99.5,285.5 C 99.5,286.5 99.5,287.5 99.5,288.5C 97.567,288.729 95.9003,289.562 94.5,291C 91.1334,296.77 92.8001,300.27 99.5,301.5C 99.3433,302.873 99.51,304.207 100,305.5C 102.651,307.65 105.151,309.983 107.5,312.5C 109.576,313.1 111.576,313.433 113.5,313.5C 113.778,317.741 115.778,320.741 119.5,322.5C 120.167,325.642 120.834,328.642 121.5,331.5C 121.328,332.492 121.662,333.158 122.5,333.5C 126.634,334.485 130.968,334.818 135.5,334.5C 138.082,338.794 141.748,340.294 146.5,339C 147.473,341.547 149.307,343.047 152,343.5C 152.667,344.5 152.667,345.5 152,346.5C 150.915,347.736 150.082,349.069 149.5,350.5C 148,352.179 146.167,353.512 144,354.5C 143.517,355.448 143.351,356.448 143.5,357.5C 140.324,358.34 137.658,360.007 135.5,362.5C 130.592,364.11 125.926,366.11 121.5,368.5C 121.5,367.167 121.5,365.833 121.5,364.5C 123.2,364.374 124.7,363.707 126,362.5C 129.328,363.689 132.328,363.022 135,360.5C 135.483,359.552 135.649,358.552 135.5,357.5C 134.127,357.657 132.793,357.49 131.5,357C 128.683,353.853 125.516,351.02 122,348.5C 120.675,342.676 117.175,339.01 111.5,337.5C 111.66,335.801 111.494,334.134 111,332.5C 107.751,329.727 104.585,326.893 101.5,324C 99.7834,322.441 97.7834,321.608 95.5,321.5C 95.762,320.022 95.4287,318.689 94.5,317.5C 89.9145,313.224 85.2478,309.057 80.5,305C 82.16,303.512 83.16,301.679 83.5,299.5C 85.8333,296.833 88.1667,294.167 90.5,291.5C 93.4822,289.526 96.4822,287.526 99.5,285.5 Z"/></g>
<g><path style="opacity:1" fill="#351936" d="M 78.5,299.5 C 75.2452,304.342 72.2452,309.342 69.5,314.5C 70.8724,310.083 72.5391,305.749 74.5,301.5C 75.6223,300.37 76.9557,299.703 78.5,299.5 Z"/></g>
<g><path style="opacity:1" fill="#732c85" d="M 83.5,299.5 C 83.16,301.679 82.16,303.512 80.5,305C 85.2478,309.057 89.9145,313.224 94.5,317.5C 95.4287,318.689 95.762,320.022 95.5,321.5C 97.7834,321.608 99.7834,322.441 101.5,324C 104.585,326.893 107.751,329.727 111,332.5C 111.494,334.134 111.66,335.801 111.5,337.5C 117.175,339.01 120.675,342.676 122,348.5C 125.516,351.02 128.683,353.853 131.5,357C 132.793,357.49 134.127,357.657 135.5,357.5C 135.649,358.552 135.483,359.552 135,360.5C 132.328,363.022 129.328,363.689 126,362.5C 124.7,363.707 123.2,364.374 121.5,364.5C 121.222,359.723 118.722,357.056 114,356.5C 113.449,352.282 111.116,349.616 107,348.5C 105.131,345.429 102.797,342.762 100,340.5C 99.5172,339.552 99.3505,338.552 99.5,337.5C 96.405,337.374 94.5717,335.707 94,332.5C 89.8333,329 86,325.167 82.5,321C 80.8204,320.966 79.3204,320.799 78,320.5C 77.6667,318.833 77.3333,317.167 77,315.5C 75.4555,316.821 74.2888,316.488 73.5,314.5C 74.7472,312.677 75.4139,310.677 75.5,308.5C 77.4528,304.88 80.1195,301.88 83.5,299.5 Z"/></g>
<g><path style="opacity:1" fill="#47195b" d="M 135.5,334.5 C 143.84,334.334 152.173,334.5 160.5,335C 163.066,336.626 162.899,338.126 160,339.5C 159.51,340.793 159.343,342.127 159.5,343.5C 158.234,344.09 156.901,344.59 155.5,345C 154.241,347.727 152.241,349.561 149.5,350.5C 150.082,349.069 150.915,347.736 152,346.5C 152.667,345.5 152.667,344.5 152,343.5C 149.307,343.047 147.473,341.547 146.5,339C 141.748,340.294 138.082,338.794 135.5,334.5 Z"/></g>
<g><path style="opacity:1" fill="#af66b7" d="M 60.5,334.5 C 60.8685,337.533 60.2018,340.2 58.5,342.5C 57.65,346.32 55.9833,349.653 53.5,352.5C 55.0702,346.109 57.4035,340.109 60.5,334.5 Z"/></g>
<g><path style="opacity:1" fill="#42294c" d="M 122.5,333.5 C 136.833,333.5 151.167,333.5 165.5,333.5C 166.932,339.054 164.932,342.388 159.5,343.5C 159.343,342.127 159.51,340.793 160,339.5C 162.899,338.126 163.066,336.626 160.5,335C 152.173,334.5 143.84,334.334 135.5,334.5C 130.968,334.818 126.634,334.485 122.5,333.5 Z"/></g>
<g><path style="opacity:1" fill="#8b339b" d="M 75.5,308.5 C 75.4139,310.677 74.7472,312.677 73.5,314.5C 74.2888,316.488 75.4555,316.821 77,315.5C 77.3333,317.167 77.6667,318.833 78,320.5C 79.3204,320.799 80.8204,320.966 82.5,321C 86,325.167 89.8333,329 94,332.5C 94.5717,335.707 96.405,337.374 99.5,337.5C 99.3505,338.552 99.5172,339.552 100,340.5C 102.797,342.762 105.131,345.429 107,348.5C 111.116,349.616 113.449,352.282 114,356.5C 118.722,357.056 121.222,359.723 121.5,364.5C 121.5,365.833 121.5,367.167 121.5,368.5C 117.855,368.726 115.188,370.393 113.5,373.5C 113.167,373.5 112.833,373.5 112.5,373.5C 109.539,374.323 106.539,374.99 103.5,375.5C 105.603,374.35 107.603,373.017 109.5,371.5C 107.009,370.459 107.009,369.626 109.5,369C 107.956,368.71 106.623,368.044 105.5,367C 106.167,366.667 106.833,366.333 107.5,366C 96.4687,355.471 85.4687,344.637 74.5,333.5C 73.2507,335.475 71.7507,335.809 70,334.5C 69.5034,332.19 69.3367,329.857 69.5,327.5C 68.448,327.351 67.448,327.517 66.5,328C 64.951,330.711 62.951,332.877 60.5,334.5C 61.7866,331.594 62.7866,328.594 63.5,325.5C 64.9213,322.991 66.5879,320.657 68.5,318.5C 70.8333,315.167 73.1667,311.833 75.5,308.5 Z"/></g>
<g><path style="opacity:1" fill="#a23eb0" d="M 103.5,375.5 C 98.2742,377.157 92.9408,378.823 87.5,380.5C 89.2094,378.187 91.5428,376.687 94.5,376C 90.6959,374.506 91.0293,373.672 95.5,373.5C 95.3573,371.738 95.6906,370.071 96.5,368.5C 91.2999,363.465 86.6333,357.965 82.5,352C 80.5,351.333 78.5,350.667 76.5,350C 74.6398,346.133 71.6398,343.8 67.5,343C 65.578,341.58 64.2446,339.747 63.5,337.5C 63.1667,338.167 62.8333,338.833 62.5,339.5C 63.7323,341.05 64.2323,342.717 64,344.5C 62.2674,344.446 60.4341,343.78 58.5,342.5C 60.2018,340.2 60.8685,337.533 60.5,334.5C 62.951,332.877 64.951,330.711 66.5,328C 67.448,327.517 68.448,327.351 69.5,327.5C 69.3367,329.857 69.5034,332.19 70,334.5C 71.7507,335.809 73.2507,335.475 74.5,333.5C 85.4687,344.637 96.4687,355.471 107.5,366C 106.833,366.333 106.167,366.667 105.5,367C 106.623,368.044 107.956,368.71 109.5,369C 107.009,369.626 107.009,370.459 109.5,371.5C 107.603,373.017 105.603,374.35 103.5,375.5 Z"/></g>
<g><path style="opacity:1" fill="#b94ac4" d="M 87.5,380.5 C 85.8333,380.5 84.1667,380.5 82.5,380.5C 80.5,380.5 78.5,380.5 76.5,380.5C 80.4767,379.723 81.1433,377.89 78.5,375C 75.8232,374.751 73.4899,373.751 71.5,372C 73.3839,371.784 75.0506,371.117 76.5,370C 72.8615,366.64 69.0282,363.473 65,360.5C 64.2904,361.973 63.1238,362.64 61.5,362.5C 61.8204,359.102 61.487,355.768 60.5,352.5C 58.7186,354.473 56.5519,355.807 54,356.5C 53.9633,358.974 53.13,360.974 51.5,362.5C 51.7878,359.061 52.4544,355.728 53.5,352.5C 55.9833,349.653 57.65,346.32 58.5,342.5C 60.4341,343.78 62.2674,344.446 64,344.5C 64.2323,342.717 63.7323,341.05 62.5,339.5C 62.8333,338.833 63.1667,338.167 63.5,337.5C 64.2446,339.747 65.578,341.58 67.5,343C 71.6398,343.8 74.6398,346.133 76.5,350C 78.5,350.667 80.5,351.333 82.5,352C 86.6333,357.965 91.2999,363.465 96.5,368.5C 95.6906,370.071 95.3573,371.738 95.5,373.5C 91.0293,373.672 90.6959,374.506 94.5,376C 91.5428,376.687 89.2094,378.187 87.5,380.5 Z"/></g>
<g><path style="opacity:1" fill="#311f36" d="M 159.5,343.5 C 156.918,348.291 153.584,352.625 149.5,356.5C 144.738,358.308 140.072,360.308 135.5,362.5C 137.658,360.007 140.324,358.34 143.5,357.5C 143.351,356.448 143.517,355.448 144,354.5C 146.167,353.512 148,352.179 149.5,350.5C 152.241,349.561 154.241,347.727 155.5,345C 156.901,344.59 158.234,344.09 159.5,343.5 Z"/></g>
<g><path style="opacity:1" fill="#d052d6" d="M 76.5,380.5 C 74.5,380.5 72.5,380.5 70.5,380.5C 69.7109,380.217 69.0442,379.717 68.5,379C 70.1667,378.667 71.8333,378.333 73.5,378C 72.5502,375.41 70.8835,373.41 68.5,372C 69.1667,371.667 69.8333,371.333 70.5,371C 68.4062,369.648 66.0728,369.148 63.5,369.5C 62.9147,363.371 61.2481,363.037 58.5,368.5C 55.2871,368.278 53.4538,366.612 53,363.5C 52.7679,364.737 52.2679,365.737 51.5,366.5C 51.5,365.167 51.5,363.833 51.5,362.5C 53.13,360.974 53.9633,358.974 54,356.5C 56.5519,355.807 58.7186,354.473 60.5,352.5C 61.487,355.768 61.8204,359.102 61.5,362.5C 63.1238,362.64 64.2904,361.973 65,360.5C 69.0282,363.473 72.8615,366.64 76.5,370C 75.0506,371.117 73.3839,371.784 71.5,372C 73.4899,373.751 75.8232,374.751 78.5,375C 81.1433,377.89 80.4767,379.723 76.5,380.5 Z"/></g>
<g><path style="opacity:1" fill="#e697e6" d="M 51.5,362.5 C 51.5,363.833 51.5,365.167 51.5,366.5C 51.1373,370.224 50.4707,373.891 49.5,377.5C 49.5108,379.045 49.8442,380.378 50.5,381.5C 53.2869,382.477 56.2869,382.81 59.5,382.5C 56.3601,383.641 53.0267,383.808 49.5,383C 48.4844,382.481 47.8178,381.647 47.5,380.5C 48.2168,374.235 49.5502,368.235 51.5,362.5 Z"/></g>
<g><path style="opacity:1" fill="#45244b" d="M 135.5,362.5 C 133.106,364.621 130.439,366.454 127.5,368C 122.442,369.245 117.775,371.078 113.5,373.5C 115.188,370.393 117.855,368.726 121.5,368.5C 125.926,366.11 130.592,364.11 135.5,362.5 Z"/></g>
<g><path style="opacity:1" fill="#e35de7" d="M 70.5,380.5 C 64.021,381.491 57.3543,381.824 50.5,381.5C 49.8442,380.378 49.5108,379.045 49.5,377.5C 50.4707,373.891 51.1373,370.224 51.5,366.5C 52.2679,365.737 52.7679,364.737 53,363.5C 53.4538,366.612 55.2871,368.278 58.5,368.5C 61.2481,363.037 62.9147,363.371 63.5,369.5C 66.0728,369.148 68.4062,369.648 70.5,371C 69.8333,371.333 69.1667,371.667 68.5,372C 70.8835,373.41 72.5502,375.41 73.5,378C 71.8333,378.333 70.1667,378.667 68.5,379C 69.0442,379.717 69.7109,380.217 70.5,380.5 Z"/></g>
<g><path style="opacity:1" fill="#431f48" d="M 112.5,373.5 C 112.389,374.117 112.056,374.617 111.5,375C 101.982,378.003 92.3153,380.169 82.5,381.5C 82.5,381.167 82.5,380.833 82.5,380.5C 84.1667,380.5 85.8333,380.5 87.5,380.5C 92.9408,378.823 98.2742,377.157 103.5,375.5C 106.539,374.99 109.539,374.323 112.5,373.5 Z"/></g>
<g><path style="opacity:0.839" fill="#c66bcb" d="M 70.5,380.5 C 72.5,380.5 74.5,380.5 76.5,380.5C 78.5,380.5 80.5,380.5 82.5,380.5C 82.5,380.833 82.5,381.167 82.5,381.5C 77.5662,381.229 72.8996,381.896 68.5,383.5C 65.6085,382.597 62.6085,382.264 59.5,382.5C 56.2869,382.81 53.2869,382.477 50.5,381.5C 57.3543,381.824 64.021,381.491 70.5,380.5 Z"/></g>
<g><path style="opacity:0.204" fill="#b5b2b2" d="M 250.5,380.5 C 287.485,382.494 324.818,383.16 362.5,382.5C 325.004,383.498 287.337,383.832 249.5,383.5C 249.263,382.209 249.596,381.209 250.5,380.5 Z"/></g>
</svg>
